PathFileType	4	(X/Y/Z)	/Users/niels/Desktop/University/Third Semester/Perception and Action/Exam/Gymnastics Motion Tracking/Code for Gym Tracking/Analyzed Data/Webcam_Backflip/id8_4_baseline_Sports2D/id8_4_baseline_Sports2D_px_person00.trc
DataRate	CameraRate	NumFrames	NumMarkers	Units	OrigDataRate	OrigDataStartFrame	OrigNumFrames
29.81132075471698	29.81132075471698	11	22	m	29.81132075471698	39	159
Frame#	Time	Hip			RHip			RKnee			RAnkle			RBigToe			RSmallToe			RHeel			LHip			LKnee			LAnkle			LBigToe			LSmallToe			LHeel			Neck			Head			Nose			RShoulder			RElbow			RWrist			LShoulder			LElbow			LWrist		
		X1	Y1	Z1	X2	Y2	Z2	X3	Y3	Z3	X4	Y4	Z4	X5	Y5	Z5	X6	Y6	Z6	X7	Y7	Z7	X8	Y8	Z8	X9	Y9	Z9	X10	Y10	Z10	X11	Y11	Z11	X12	Y12	Z12	X13	Y13	Z13	X14	Y14	Z14	X15	Y15	Z15	X16	Y16	Z16	X17	Y17	Z17	X18	Y18	Z18	X19	Y19	Z19	X20	Y20	Z20	X21	Y21	Z21	X22	Y22	Z22
39	1.3082278481012657	0.8895072991472689	-0.44481201953272914	0.0	0.8873199875782007	-0.44483291076243264	0.0	0.8996037305211775	-0.5564228910260712	0.0	0.8452671284077099	-0.6277252147718805	0.0	0.8617990982167882	-0.6651606909223675	0.0	0.8534938361961852	-0.6636230226562014	0.0	0.8314091692810537	-0.630467369936569	0.0	0.8917320819180536	-0.4445757347522094	0.0	0.8994834483477469	-0.552683068578026	0.0	0.8435781325214518	-0.6192066848489852	0.0	0.8611259273969345	-0.6600465863278978	0.0	0.8552445615753781	-0.654408163196463	0.0	0.8291975794075478	-0.62255768306023	0.0	1.005634560442232	-0.41684074139524835	0.0	1.0686988727661721	-0.4099077435458207	0.0	1.043426267053671	-0.4317402758296909	0.0	0.9873563273938935	-0.4153857236966251	0.0	0.9696230719281631	-0.4468595813913137	0.0	0.9865428364102552	-0.4962977759834298	0.0	0.9969250042096371	-0.4135260863288066	0.0	0.9928596504311801	-0.45582148768689845	0.0	1.0070801587128628	-0.5003231854242948	0.0
40	1.3417721518987342	0.8871486667828428	-0.49058201524529177	0.0	0.8856031299821986	-0.49009304778456975	0.0	0.9008097815151487	-0.5983376011096216	0.0	0.8607151355224454	-0.6881675095741013	0.0	0.8839100266280798	-0.7211622951445005	0.0	0.8750938295915784	-0.7216620629790184	0.0	0.8467299911282429	-0.6953097676175348	0.0	0.8889281349160553	-0.48976952623962666	0.0	0.8987856219378005	-0.596210010726568	0.0	0.8580454191435385	-0.6804055753877482	0.0	0.8835979103144033	-0.716325306161563	0.0	0.8760657739464167	-0.7114964977146895	0.0	0.843129283999597	-0.6881988926893691	0.0	0.9930978908772271	-0.42914093243379686	0.0	1.0546197000537558	-0.40999984587241445	0.0	1.0327086825363758	-0.4351235017472839	0.0	0.9762223746610077	-0.43123833948714757	0.0	0.9803263496239539	-0.46112277629678144	0.0	1.006392562014034	-0.4977622836959996	0.0	0.9848222832134307	-0.42837782470509644	0.0	0.9991838334450025	-0.4655033833364267	0.0	1.0242349904211128	-0.49879047363937135	0.0
41	1.3753164556962025	0.8870838787371872	-0.5376218401163849	0.0	0.8859081939742867	-0.5367706953683218	0.0	0.9035409072432938	-0.6411187779616027	0.0	0.8741733717533605	-0.7397816333389432	0.0	0.9002357878626571	-0.7676296506567268	0.0	0.8914362047556588	-0.7700531378415243	0.0	0.860642279129297	-0.749820139872366	0.0	0.888638793307043	-0.5362487497725782	0.0	0.9009623376163589	-0.6397350550008888	0.0	0.871533869841897	-0.7331586912803204	0.0	0.9006549122463687	-0.7631938281870355	0.0	0.8922823145876696	-0.7596976332591204	0.0	0.8568696896182773	-0.743864734081354	0.0	0.9773140701977306	-0.4483147576412535	0.0	1.0343192340631613	-0.4168666668959289	0.0	1.0166327207947126	-0.44480079350418494	0.0	0.9626303592533205	-0.4534398782711836	0.0	0.9865269093521768	-0.47306611834615314	0.0	1.0201733186680872	-0.491120148629027	0.0	0.9700878353713213	-0.4497093640377532	0.0	0.999340843192705	-0.4729626226157038	0.0	1.0324017508840826	-0.4896887524644189	0.0
42	1.4088607594936708	0.8880744683771549	-0.5824573777629027	0.0	0.8869975588216045	-0.5814279119885608	0.0	0.9082712342147187	-0.6814501243492221	0.0	0.8835183685605518	-0.7811997535167339	0.0	0.9098806057704689	-0.8045547732407582	0.0	0.901324943961299	-0.8084823379851795	0.0	0.8706621202774727	-0.7924198443206458	0.0	0.8895358637329507	-0.5805874105331066	0.0	0.9059881578877307	-0.6801851200067643	0.0	0.8815223353371665	-0.7757638608729686	0.0	0.9105590823205851	-0.8003718324673817	0.0	0.9020924106244729	-0.7985791419537563	0.0	0.8673979409041033	-0.7875785592824357	0.0	0.9604817644784786	-0.4728089558598858	0.0	1.0106877866135777	-0.42993102221408214	0.0	0.9977638396745837	-0.46027672209426956	0.0	0.9485278603563525	-0.47990292343912727	0.0	0.9866986828945196	-0.4830499743656237	0.0	1.0242513109711386	-0.4797433389380202	0.0	0.9544950303619069	-0.4754576575855772	0.0	0.9929314916963903	-0.47987132173511005	0.0	1.0297016893696913	-0.4773303170852118	0.0
43	1.4424050632911392	0.8889342190281332	-0.6213248000987431	0.0	0.8877444688830914	-0.620278172532236	0.0	0.9145375962806629	-0.7155509299490938	0.0	0.888549539538615	-0.8114371781875318	0.0	0.9142164702195262	-0.8315099373537278	0.0	0.9058722591312124	-0.8364149430546062	0.0	0.8763672605905489	-0.822393542971796	0.0	0.8903792574111099	-0.619031329238105	0.0	0.9128483625014241	-0.7140796174655406	0.0	0.8872668347036486	-0.8070529067229478	0.0	0.9142160746587262	-0.8274236925170393	0.0	0.9058909233988672	-0.8275206988326348	0.0	0.8735898360713781	-0.8183541548498074	0.0	0.9446217089768312	-0.4992465129016162	0.0	0.9870645033798685	-0.4470650589060292	0.0	0.9788624006208678	-0.4793484604938827	0.0	0.93550747172377	-0.5068312949817643	0.0	0.9810038728919793	-0.4912362370213821	0.0	1.018104330164914	-0.4674600631734026	0.0	0.9396782228756675	-0.5018994852991032	0.0	0.9813221504591977	-0.4868652962056968	0.0	1.0174125631967812	-0.4655946280013815	0.0
44	1.4759493670886075	0.8888012054440069	-0.650757309638031	0.0	0.8874164705568133	-0.6497772352110274	0.0	0.9212724311309233	-0.7400672680168158	0.0	0.8902636186591434	-0.8299893837150615	0.0	0.9151257642909884	-0.8480094577440312	0.0	0.9069489871467423	-0.853398432268648	0.0	0.8786131147852295	-0.8398492425972932	0.0	0.8902219333805084	-0.6480759860420067	0.0	0.9200806655486924	-0.7383143922577754	0.0	0.889408379264131	-0.8263799875847802	0.0	0.9139711555925896	-0.8440173687227497	0.0	0.9053288721093721	-0.8459798680786325	0.0	0.8758822344308499	-0.8361700142064725	0.0	0.9311670178979049	-0.5230293248348197	0.0	0.9663506233243571	-0.4643918408136943	0.0	0.9622058918189647	-0.4980334825203405	0.0	0.9245810348756632	-0.5297122665741293	0.0	0.9713988271864055	-0.4970726544055929	0.0	1.004686997333626	-0.45671282552550513	0.0	0.9268052123699179	-0.5245930477649033	0.0	0.9670599661334746	-0.49308619595757824	0.0	0.9992165318011456	-0.4562331926359589	0.0
45	1.5094936708860758	0.8873169505599956	-0.6682325131985644	0.0	0.8858337165927647	-0.6673608015663254	0.0	0.9273281771255196	-0.7527829805915225	0.0	0.8900539786166728	-0.8371118246321746	0.0	0.9141248896935589	-0.8541099195024799	0.0	0.9062355708209194	-0.8596107948545981	0.0	0.8786956981907587	-0.8457357479384452	0.0	0.8885435985831616	-0.6651625852489638	0.0	0.9263324605507508	-0.7507986951160208	0.0	0.8892226384813202	-0.8338644571481424	0.0	0.9125525965624487	-0.8502985709138388	0.0	0.9025708096867467	-0.8538323437994515	0.0	0.8755465395535605	-0.8419618295856318	0.0	0.9207368532830918	-0.5395938064349071	0.0	0.9502426551469618	-0.4772342936588338	0.0	0.9490083681663946	-0.5116365081684381	0.0	0.9161742580111246	-0.544672912353601	0.0	0.960710500222733	-0.4992550867119686	0.0	0.9889093678976968	-0.4476309785890074	0.0	0.9163307213612024	-0.5395563892978481	0.0	0.9527767896496075	-0.4964185621571047	0.0	0.9796167727545675	-0.4484877352668928	0.0
46	1.5430379746835443	0.8846188567749693	-0.6727731673952401	0.0	0.8832636266782076	-0.672070592721768	0.0	0.9318829045312252	-0.7530953925946667	0.0	0.8891695657063801	-0.8339081942522406	0.0	0.9125814935027068	-0.8506433750214523	0.0	0.9051357237104262	-0.8560157406893085	0.0	0.8778338357614455	-0.8417052454139344	0.0	0.8853689700511892	-0.6693481839412218	0.0	0.9307699920675419	-0.7509581324163208	0.0	0.8880272763435413	-0.8305666326882769	0.0	0.9122254827096292	-0.8470493349465559	0.0	0.8998754384974473	-0.8515289884394834	0.0	0.874045294027547	-0.8374536738968388	0.0	0.9131472780520941	-0.5458115589376298	0.0	0.9390339955375565	-0.48179582484146616	0.0	0.9394177771494306	-0.5164447070156966	0.0	0.9101195855484473	-0.5494476589094929	0.0	0.9513045687865874	-0.4962309717296572	0.0	0.9752674968550792	-0.4385519938400239	0.0	0.9081030513336991	-0.5442835505546855	0.0	0.9403672854877914	-0.4943277104661657	0.0	0.9623990649723144	-0.43997574105380927	0.0
47	1.5765822784810126	0.8811754437102575	-0.66523903660787	0.0	0.8801772821137175	-0.6647553776267222	0.0	0.9345491548705254	-0.7422663400887932	0.0	0.8884302657709363	-0.8222990790638671	0.0	0.9118739329217287	-0.8392440658391672	0.0	0.9047817062042046	-0.8443406083804228	0.0	0.8768948742699155	-0.8299741761081173	0.0	0.8812962519596138	-0.661599080155033	0.0	0.9332137878299297	-0.7400753995417297	0.0	0.8868870426672919	-0.8185136298707183	0.0	0.9141123264832763	-0.8358239500566461	0.0	0.8991972790845714	-0.8403263172113232	0.0	0.8726452114779085	-0.8250248446683609	0.0	0.9076764684008293	-0.5408041072077112	0.0	0.9319793605950734	-0.47641164449147994	0.0	0.9329177722204114	-0.5108788607696193	0.0	0.9057481228509973	-0.5436531860844355	0.0	0.9442913031860318	-0.4869549720131847	0.0	0.9661661751486378	-0.4273695329910283	0.0	0.9017991470838458	-0.5382811800118453	0.0	0.930937792998663	-0.485065983711427	0.0	0.9498343551016883	-0.4281456121714206	0.0
48	1.610126582278481	0.8775580654078976	-0.6480617006207317	0.0	0.8770074646599517	-0.6477420035155248	0.0	0.9352121460206277	-0.7232348302017799	0.0	0.888157457204661	-0.805004713711867	0.0	0.9129588478252938	-0.8224264616517174	0.0	0.9057698718561262	-0.8271791224893411	0.0	0.8762949218584188	-0.8132851759482246	0.0	0.8772610504464606	-0.6444497933402934	0.0	0.933890860208221	-0.7211149009664968	0.0	0.8865605592878798	-0.8006052728641444	0.0	0.9179953569176078	-0.8190694220415059	0.0	0.9016770076547894	-0.8225931069086616	0.0	0.8722869828456806	-0.80763842645404	0.0	0.9034442728452857	-0.5258147170542389	0.0	0.9276814199301813	-0.46173019924292075	0.0	0.9285983608172502	-0.4955589090251913	0.0	0.902187767113717	-0.528541744478223	0.0	0.9395617889349038	-0.47144144716779113	0.0	0.9616462231877081	-0.412706775007503	0.0	0.8971560308835412	-0.5229245145565817	0.0	0.9249637344306043	-0.46853174771060463	0.0	0.9425687063459387	-0.4115959488035046	0.0
49	1.6436708860759492	0.8742162021655944	-0.6245425862710002	0.0	0.8740007925691287	-0.6242186145038042	0.0	0.9338308324711	-0.6998127532572421	0.0	0.8882510379784321	-0.78518377918267	0.0	0.9158343770237374	-0.8033399748738559	0.0	0.9078929229177363	-0.8077739995590091	0.0	0.8760436885578408	-0.7945936735229693	0.0	0.8740619278135181	-0.6212179149048006	0.0	0.9330419164472253	-0.697850608285302	0.0	0.8875415735659259	-0.780137335384753	0.0	0.9227957890640789	-0.7998414153470076	0.0	0.9071437778868275	-0.8016268267691627	0.0	0.873604078457481	-0.7884150533031227	0.0	0.8997192403858031	-0.5034422614938144	0.0	0.9244087190720787	-0.44004326651831116	0.0	0.9253180493324896	-0.472667153615612	0.0	0.8987292836235962	-0.506500105695907	0.0	0.9363143996552032	-0.4508337528266661	0.0	0.9601683209862131	-0.39436420352501333	0.0	0.8938029224517658	-0.5007968475582912	0.0	0.9221561511909608	-0.4462913516872161	0.0	0.9398424448339762	-0.3906804592840865	0.0
